<svg width="22" height="22" viewBox="0 0 22 22" fill="none" xmlns="http://www.w3.org/2000/svg">
<mask id="mask0_45_269" style="mask-type:luminance" maskUnits="userSpaceOnUse" x="0" y="0" width="21" height="21">
<path d="M0 10.4729C0 16.2636 4.69874 20.9623 10.4894 20.9623C16.2801 20.9623 20.9789 16.2636 20.9789 10.4729C20.9789 4.68219 16.2801 0 10.4894 0C4.69874 0 0 4.68219 0 10.4729Z" fill="white"/>
</mask>
<g mask="url(#mask0_45_269)">
</g>
<g clip-path="url(#clip0_45_269)">
<path d="M0.320958 8.13832C1.73925 2.3976 7.53063 -1.09749 13.2713 0.320805C19.0121 1.7391 22.5072 7.54736 21.0889 13.2712C19.6706 19.0119 13.8623 22.507 8.13847 21.0887C2.39775 19.6704 -1.09734 13.8622 0.320958 8.13832Z" fill="white"/>
<path d="M12.6804 0.185731C11.3803 -0.0675363 10.097 -0.0675363 8.86447 0.151962V8.69551H0.185853C-0.0674143 9.97873 -0.0674142 11.2788 0.152084 12.5114H8.86447V21.2407C10.1646 21.4602 11.4478 21.4433 12.6804 21.2069V12.5114H21.2408C21.4603 11.2113 21.4434 9.92807 21.207 8.69551H12.6804V0.185731Z" fill="#C62931"/>
<path d="M6.11231 3.24182H4.72778V7.41229H6.11231V3.24182Z" fill="#C62931"/>
<path d="M7.49688 4.64322H3.32642V6.02775H7.49688V4.64322Z" fill="#C62931"/>
<path d="M16.7156 3.24182H15.3311V7.41229H16.7156V3.24182Z" fill="#C62931"/>
<path d="M18.1172 4.64322H13.9468V6.02775H18.1172V4.64322Z" fill="#C62931"/>
<path d="M6.11231 13.8115H4.72778V17.982H6.11231V13.8115Z" fill="#C62931"/>
<path d="M7.49688 15.196H3.32642V16.5806H7.49688V15.196Z" fill="#C62931"/>
<path d="M16.7156 13.8115H15.3311V17.982H16.7156V13.8115Z" fill="#C62931"/>
<path d="M18.1172 15.196H13.9468V16.5806H18.1172V15.196Z" fill="#C62931"/>
</g>
<defs>
<clipPath id="clip0_45_269">
<rect width="21.4095" height="21.4095" fill="white" transform="translate(0.000244141)"/>
</clipPath>
</defs>
</svg>
